HIERARCHY
ROOT Hips
{
	OFFSET 0.00000 0.00000 0.00000
	CHANNELS 6 Xposition Yposition Zposition Zrotation Yrotation Xrotation 
	JOINT LHipJoint
	{
		OFFSET 0 0 0
		CHANNELS 3 Zrotation Yrotation Xrotation
		JOINT LeftUpLeg
		{
			OFFSET 1.59801 -1.77853 0.57028
			CHANNELS 3 Zrotation Yrotation Xrotation
			JOINT LeftLeg
			{
				OFFSET 2.39439 -6.57854 0.00000
				CHANNELS 3 Zrotation Yrotation Xrotation
				JOINT LeftFoot
				{
					OFFSET 2.69334 -7.39989 0.00000
					CHANNELS 3 Zrotation Yrotation Xrotation
					JOINT LeftToeBase
					{
						OFFSET 0.09553 -0.26245 1.73747
						CHANNELS 3 Zrotation Yrotation Xrotation
						End Site
						{
							OFFSET 0.00000 -0.00000 0.89391
						}
					}
				}
			}
		}
	}
	JOINT RHipJoint
	{
		OFFSET 0 0 0
		CHANNELS 3 Zrotation Yrotation Xrotation
		JOINT RightUpLeg
		{
			OFFSET -1.54704 -1.77852 0.57028
			CHANNELS 3 Zrotation Yrotation Xrotation
			JOINT RightLeg
			{
				OFFSET -2.40286 -6.60180 0.00000
				CHANNELS 3 Zrotation Yrotation Xrotation
				JOINT RightFoot
				{
					OFFSET -2.63873 -7.24984 0.00000
					CHANNELS 3 Zrotation Yrotation Xrotation
					JOINT RightToeBase
					{
						OFFSET -0.15631 -0.42945 1.84436
						CHANNELS 3 Zrotation Yrotation Xrotation
						End Site
						{
							OFFSET -0.00000 -0.00000 0.95734
						}
					}
				}
			}
		}
	}
	JOINT LowerBack
	{
		OFFSET 0 0 0
		CHANNELS 3 Zrotation Yrotation Xrotation
		JOINT Spine
		{
			OFFSET -0.00436 1.89866 -0.04018
			CHANNELS 3 Zrotation Yrotation Xrotation
			JOINT Spine1
			{
				OFFSET 0.02031 1.88273 0.09634
				CHANNELS 3 Zrotation Yrotation Xrotation
				JOINT Neck
				{
					OFFSET 0 0 0
					CHANNELS 3 Zrotation Yrotation Xrotation
					JOINT Neck1
					{
						OFFSET -0.13105 1.89371 0.23083
						CHANNELS 3 Zrotation Yrotation Xrotation
						JOINT Head
						{
							OFFSET 0.17062 1.83990 -0.54062
							CHANNELS 3 Zrotation Yrotation Xrotation
							End Site
							{
								OFFSET 0.04576 1.94782 -0.21839
							}
						}
					}
				}
				JOINT LeftShoulder
				{
					OFFSET 0 0 0
					CHANNELS 3 Zrotation Yrotation Xrotation
					JOINT LeftArm
					{
						OFFSET 3.12424 1.09204 0.22226
						CHANNELS 3 Zrotation Yrotation Xrotation
						JOINT LeftForeArm
						{
							OFFSET 5.29277 -0.00000 0.00000
							CHANNELS 3 Zrotation Yrotation Xrotation
							JOINT LeftHand
							{
								OFFSET 2.85226 -0.00000 0.00000
								CHANNELS 3 Zrotation Yrotation Xrotation
								JOINT LeftFingerBase
								{
									OFFSET 0 0 0
									CHANNELS 3 Zrotation Yrotation Xrotation
									JOINT LeftHandIndex1
									{
										OFFSET 0.60210 -0.00000 0.00000
										CHANNELS 3 Zrotation Yrotation Xrotation
										End Site
										{
											OFFSET 0.48543 -0.00000 0.00000
										}
									}
								}
								JOINT LThumb
								{
									OFFSET 0 0 0
									CHANNELS 3 Zrotation Yrotation Xrotation
									End Site
									{
										OFFSET 0.49284 -0.00000 0.49284
									}
								}
							}
						}
					}
				}
				JOINT RightShoulder
				{
					OFFSET 0 0 0
					CHANNELS 3 Zrotation Yrotation Xrotation
					JOINT RightArm
					{
						OFFSET -2.91709 1.01504 0.30199
						CHANNELS 3 Zrotation Yrotation Xrotation
						JOINT RightForeArm
						{
							OFFSET -5.13304 -0.00000 0.00000
							CHANNELS 3 Zrotation Yrotation Xrotation
							JOINT RightHand
							{
								OFFSET -2.74305 -0.00000 0.00000
								CHANNELS 3 Zrotation Yrotation Xrotation
								JOINT RightFingerBase
								{
									OFFSET 0 0 0
									CHANNELS 3 Zrotation Yrotation Xrotation
									JOINT RightHandIndex1
									{
										OFFSET -0.76798 -0.00000 0.00000
										CHANNELS 3 Zrotation Yrotation Xrotation
										End Site
										{
											OFFSET -0.61916 -0.00000 0.00000
										}
									}
								}
								JOINT RThumb
								{
									OFFSET 0 0 0
									CHANNELS 3 Zrotation Yrotation Xrotation
									End Site
									{
										OFFSET -0.62862 -0.00000 0.62862
									}
								}
							}
						}
					}
				}
			}
		}
	}
}
MOTION
Frames: 11
Frame Time: .0083333
0.2419 16.4737 -1.6411 0 0 0 0 0 0 -21 0 0 0 0 0 0 0 0 0 0 0 0 0 0 21 0 0 0 0 0 0 0 0 0 0 0 0 0 0 0 0 0 0 0 0 0 0 -16 0 0 21 0 0 11 0 0 0 -8 0 0 0 0 0 0 0 0 0 0 0 0 0 0 0 0 0 0 0 0 8 0 0 0 0 0 0 0 0 0 0 0 0 0 0 0 0 0
0.2419 16.4737 -1.6411 -4.2376 2.9875 16.0742 0.0000 0.0000 0.0000 -6.5689 -17.4596 -41.1792 6.7887 15.1514 48.0707 1.1967 -6.7271 -19.5422 1.0056 -6.3810 -17.8938 0.0000 0.0000 0.0000 16.9325 15.3246 -37.3982 -5.5390 -13.9663 43.1024 -1.3917 1.1391 -21.9684 -1.1397 6.7795 -19.0638 -1.5564 0.7113 18.5276 -0.9946 0.5919 5.4573 -0.3018 0.2971 -4.5081 -19.7938 -9.0718 -3.4356 30.1866 -10.3146 -11.9285 12.8946 -5.3549 0.3000 0.0000 0.0000 0.0000 -77.6205 -50.3958 37.0624 104.4864 -59.1920 -72.5115 -0.0000 -0.0000 10.1320 -24.1893 33.6787 -13.9874 -7.1250 0.0000 -0.0000 -58.2600 54.3715 -17.9557 0.0000 0.0000 0.0000 73.0948 51.8686 32.3268 -104.3862 59.2034 -72.4255 0.0000 0.0000 24.1674 33.9958 9.0871 6.0798 7.1250 -0.0000 -0.0000 38.4052 -17.6700 33.7251
0.2585 16.4031 -1.6805 -3.9766 3.0883 15.8850 0.0000 0.0000 0.0000 -6.8534 -17.4709 -41.7771 7.0617 15.3836 49.1072 1.2125 -7.2072 -19.6722 0.9598 -6.2381 -17.4769 0.0000 0.0000 0.0000 16.5020 15.1484 -38.1837 -5.8886 -14.3195 44.5331 -1.4804 1.2481 -22.6421 -1.1818 6.8995 -19.4178 -1.5856 0.7391 18.8615 -0.7397 0.6321 5.5704 -0.0264 0.3160 -4.5661 -19.7457 -8.9664 -3.2346 30.1070 -10.2035 -11.8644 12.8776 -5.3104 0.2418 0.0000 0.0000 0.0000 -76.6284 -51.9542 36.0577 105.3231 -59.0940 -73.2298 -0.0000 -0.0000 10.1519 -24.5058 33.8219 -14.2373 -7.1250 0.0000 -0.0000 -58.6600 54.3982 -18.2038 0.0000 0.0000 0.0000 72.7534 52.9195 31.6040 -105.2376 59.1043 -73.1564 0.0000 0.0000 24.3269 33.5038 8.7905 5.7767 7.1250 -0.0000 -0.0000 38.3050 -18.0926 33.0382
0.2737 16.3379 -1.7179 -3.6040 3.1073 15.7949 0.0000 0.0000 0.0000 -7.2751 -17.4267 -42.3913 7.2912 15.5723 49.9674 1.2274 -7.5888 -19.8002 0.9823 -6.3088 -17.6829 0.0000 0.0000 0.0000 15.9090 15.0612 -39.0232 -6.2381 -14.6551 45.9298 -1.5604 1.2163 -23.2686 -1.2847 7.1823 -20.2567 -1.6832 0.7218 18.9815 -0.5935 0.6008 5.7559 0.1914 0.2992 -4.4326 -19.6827 -8.8365 -3.1503 30.1203 -10.0185 -11.9045 12.9006 -5.2281 0.1655 -0.0000 0.0000 0.0000 -75.1113 -53.5443 34.5618 106.1002 -58.9975 -73.8963 -0.0000 -0.0000 10.0507 -24.8700 34.0112 -14.5360 -7.1250 0.0000 -0.0000 -59.1470 54.4436 -18.5312 -0.0000 0.0000 0.0000 72.6846 54.1615 31.1108 -106.0721 59.0011 -73.8722 0.0000 0.0000 24.6627 32.8570 8.4494 5.4212 7.1250 -0.0000 -0.0000 38.1539 -18.5935 32.1814
0.2881 16.2744 -1.7532 -3.0060 3.0900 15.8733 0.0000 0.0000 0.0000 -7.9021 -17.4691 -43.1085 7.5006 15.7394 50.7434 1.2355 -7.8974 -19.8750 0.9976 -6.3562 -17.8216 0.0000 0.0000 0.0000 15.0133 14.9881 -40.0157 -6.5743 -14.9627 47.2454 -1.6324 1.2613 -23.7991 -1.2948 7.2095 -20.3377 -1.9403 0.7372 18.9477 -0.5361 0.5809 5.9026 0.4040 0.2878 -4.2601 -19.5444 -8.7569 -3.0157 30.0827 -9.8932 -12.0633 12.8879 -5.1845 0.0542 -0.0000 -0.0000 0.0000 -73.7080 -55.1383 33.1853 107.0626 -58.8709 -74.7206 -0.0000 -0.0000 9.8958 -25.4859 34.3613 -15.0583 -7.1250 0.0000 -0.0000 -60.0048 54.5363 -19.1406 -0.0000 -0.0000 0.0000 72.7663 55.3917 30.6029 -106.8600 58.8982 -74.5472 0.0000 0.0000 25.1475 32.2251 8.2792 5.1864 7.1250 -0.0000 -0.0000 37.9534 -18.9247 31.4705
0.3040 16.2221 -1.7838 -2.4331 3.0885 15.9577 0.0000 0.0000 0.0000 -8.5109 -17.5680 -43.6909 7.6686 15.8700 51.3600 1.2284 -8.1925 -19.8311 0.9541 -6.2200 -17.4242 0.0000 0.0000 0.0000 14.1670 14.8508 -40.9105 -6.8750 -15.2257 48.4000 -1.6902 1.4327 -24.1795 -1.2477 7.0822 -19.9591 -2.3386 0.8656 18.9225 -0.3125 0.6908 6.0183 0.8441 0.3383 -4.1316 -19.5878 -8.7315 -2.7310 30.0475 -9.8435 -12.3558 12.9146 -5.1860 -0.0890 -0.0000 -0.0000 0.0000 -72.9757 -56.6816 32.2647 108.1966 -58.7112 -75.6905 -0.0000 -0.0000 9.8920 -26.2284 34.8478 -15.7227 -7.1250 0.0000 -0.0000 -61.1133 54.6824 -19.9958 -0.0000 -0.0000 0.0000 72.5904 56.4036 29.8180 -107.7795 58.7712 -75.3340 0.0000 0.0000 25.5566 31.6089 8.2717 5.0597 7.1250 -0.0000 -0.0000 37.7059 -19.0950 30.8982
0.3193 16.1818 -1.8115 -1.9583 3.0083 15.9154 0.0000 0.0000 0.0000 -9.1032 -17.5099 -43.9995 7.7907 15.9631 51.8052 1.2232 -8.5217 -19.8079 0.8797 -5.9792 -16.7240 0.0000 0.0000 0.0000 13.4506 14.7777 -41.5175 -7.1274 -15.4382 49.3545 -1.7403 1.7173 -24.4685 -1.1318 6.7570 -18.9974 -2.9117 1.0670 19.0649 0.1186 0.8694 6.1462 1.5877 0.4202 -4.0869 -19.9329 -8.7048 -2.4318 30.0092 -9.7830 -12.7345 13.0046 -5.1725 -0.2432 0.0000 0.0000 0.0000 -72.5082 -57.9710 31.3810 108.8908 -58.6077 -76.2834 -0.0000 -0.0000 9.8126 -26.8426 35.1169 -16.2310 -7.1250 0.0000 -0.0000 -61.8841 54.7178 -20.4927 0.0000 0.0000 0.0000 72.1635 57.2789 29.0696 -108.6781 58.6399 -76.1018 0.0000 0.0000 25.7578 31.0760 8.2299 4.9306 7.1250 -0.0000 -0.0000 37.4967 -19.2678 30.3890
0.3334 16.1535 -1.8375 -1.5046 3.0009 15.7167 0.0000 0.0000 0.0000 -9.7242 -17.4479 -44.0409 7.8678 16.0211 52.0851 1.2209 -8.9716 -19.8217 0.8365 -5.8343 -16.3044 0.0000 0.0000 0.0000 12.8429 14.6387 -41.7906 -7.3096 -15.5872 50.0358 -1.7851 1.9187 -24.7397 -1.0148 6.4093 -17.9766 -3.3422 1.1730 19.3813 0.4685 0.9393 6.3229 2.1877 0.4489 -4.0753 -20.2618 -8.6656 -2.3282 30.0256 -9.7072 -12.9324 13.0977 -5.1341 -0.3137 -0.0000 0.0000 0.0000 -71.5870 -58.9940 30.3200 109.0762 -58.5793 -76.4417 -0.0000 -0.0000 9.3998 -27.1430 35.1710 -16.4524 -7.1250 0.0000 -0.0000 -62.1736 54.6879 -20.6071 -0.0000 0.0000 0.0000 72.3881 58.0266 28.8102 -109.5720 58.5019 -76.8646 0.0000 0.0000 25.7889 30.8665 8.1192 4.8251 7.1250 -0.0000 -0.0000 37.4400 -19.4194 30.1276
0.3434 16.1363 -1.8605 -1.2212 2.9895 15.5140 0.0000 0.0000 0.0000 -10.1565 -17.3101 -44.0232 7.9018 16.0466 52.2083 1.2093 -9.3316 -19.7622 0.8103 -5.7447 -16.0453 0.0000 0.0000 0.0000 12.4643 14.6280 -41.8719 -7.4194 -15.6751 50.4431 -1.8034 1.8576 -24.8850 -1.0280 6.4495 -18.0943 -3.5253 1.2580 19.7417 0.7061 1.0173 6.4486 2.5256 0.4841 -4.1380 -20.3508 -8.6049 -2.1851 30.0697 -9.6118 -13.0855 13.1582 -5.0984 -0.3963 -0.0000 0.0000 0.0000 -70.5238 -59.7215 29.4024 109.1176 -58.5730 -76.4770 -0.0000 -0.0000 9.1554 -27.4099 35.1649 -16.6288 -7.1250 0.0000 -0.0000 -62.3692 54.6287 -20.6169 -0.0000 0.0000 0.0000 73.3595 58.4518 28.9636 -110.5385 58.3445 -77.6880 0.0000 0.0000 25.8356 30.7730 7.8877 4.6718 7.1250 -0.0000 -0.0000 37.4667 -19.6513 29.8881
0.3555 16.1334 -1.8755 -1.1287 2.8783 15.4250 0.0000 0.0000 0.0000 -10.4011 -17.0395 -44.0378 7.8976 16.0434 52.1931 1.1806 -9.3435 -19.5354 0.7553 -5.5506 -15.4860 0.0000 0.0000 0.0000 12.2680 14.7789 -41.8634 -7.4529 -15.7017 50.5671 -1.7971 1.7576 -24.8662 -1.0586 6.5419 -18.3650 -3.4937 1.3974 20.1943 0.9299 1.1985 6.3868 2.7008 0.5773 -4.4553 -20.3505 -8.5779 -1.9335 30.0500 -9.5880 -13.2146 13.1725 -5.1062 -0.4843 -0.0000 -0.0000 0.0000 -70.0443 -59.9953 29.1224 109.1034 -58.5751 -76.4649 -0.0000 -0.0000 9.3652 -27.8877 34.8923 -16.8421 -7.1250 0.0000 -0.0000 -62.4229 54.3668 -20.1878 -0.0000 -0.0000 0.0000 74.5180 58.3694 29.1984 -111.4333 58.1910 -78.4490 0.0000 0.0000 25.9804 30.5005 7.8098 4.5764 7.1250 -0.0000 -0.0000 37.3727 -19.7866 29.5960
0.3722 16.1429 -1.8825 -1.0461 2.8187 15.5110 0.0000 0.0000 0.0000 -10.6127 -16.8481 -44.1133 7.8560 16.0123 52.0424 1.1569 -9.3564 -19.3467 0.7219 -5.4291 -15.1366 0.0000 0.0000 0.0000 12.0545 14.8965 -41.8763 -7.4195 -15.6752 50.4436 -1.7788 1.7033 -24.7496 -1.0561 6.5344 -18.3432 -3.4013 1.4924 20.5067 1.2002 1.3434 6.2557 2.8997 0.6537 -4.7732 -20.3939 -8.5677 -1.7733 29.8800 -9.5979 -13.2507 13.1234 -5.1137 -0.5336 -0.0000 -0.0000 0.0000 -69.9796 -59.9273 29.3923 108.9969 -58.5915 -76.3740 -0.0000 -0.0000 9.2390 -27.9594 34.9726 -16.9222 -7.1250 0.0000 -0.0000 -62.5671 54.4001 -20.3291 -0.0000 -0.0000 0.0000 75.7325 58.0261 29.5952 -112.2024 58.0529 -79.1021 0.0000 0.0000 26.1966 30.0927 7.7762 4.4834 7.1250 -0.0000 -0.0000 37.2056 -19.9114 29.2194
